<?xml version="1.0" encoding="UTF-8" standalone="no"?>
<!DOCTYPE svg PUBLIC "-//W3C//DTD SVG 1.1//EN" "http://www.w3.org/Graphics/SVG/1.1/DTD/svg11.dtd">
<svg width="100%" height="100%" viewBox="0 0 1920 1080" version="1.1" xmlns="http://www.w3.org/2000/svg" xmlns:xlink="http://www.w3.org/1999/xlink" xml:space="preserve" xmlns:serif="http://www.serif.com/" style="fill-rule:evenodd;clip-rule:evenodd;stroke-linejoin:round;stroke-miterlimit:2;">
    <g transform="matrix(1.03028,0,0,1.14919,-27.879,-72.4856)">
        <path d="M1883.89,299.314C1883.89,170.347 1767.1,65.642 1623.25,65.642L291.981,65.642C148.129,65.642 31.34,170.347 31.34,299.314L31.34,766.66C31.34,895.627 148.129,1000.33 291.981,1000.33L1623.25,1000.33C1767.1,1000.33 1883.89,895.627 1883.89,766.66L1883.89,299.314Z" style="fill:rgb(0,160,255);"/>
    </g>
    <g transform="matrix(1,0,0,1,-509.352,513.59)">
        <g transform="matrix(900,0,0,900,664.192,314.182)">
            <path d="M0.035,-0.5L0.068,-0.5L0.098,-0.638L0.246,-0.658L0.212,-0.5L0.272,-0.5L0.264,-0.46L0.204,-0.46L0.14,-0.16C0.139,-0.154 0.138,-0.149 0.137,-0.143C0.136,-0.139 0.136,-0.133 0.136,-0.128C0.136,-0.115 0.139,-0.105 0.146,-0.1C0.152,-0.094 0.162,-0.091 0.177,-0.091C0.196,-0.091 0.213,-0.099 0.23,-0.116C0.247,-0.132 0.259,-0.153 0.267,-0.179L0.309,-0.179C0.288,-0.118 0.259,-0.072 0.223,-0.041C0.187,-0.01 0.146,0.006 0.099,0.006C0.066,0.006 0.04,-0.005 0.021,-0.025C0.002,-0.047 -0.008,-0.076 -0.008,-0.114C-0.008,-0.123 -0.007,-0.133 -0.006,-0.143C-0.005,-0.155 -0.003,-0.166 0,-0.179L0.06,-0.46L0.027,-0.46L0.035,-0.5Z" style="fill:white;fill-rule:nonzero;"/>
        </g>
        <g transform="matrix(900,0,0,900,904.492,314.182)">
            <path d="M0.167,-0.091C0.184,-0.091 0.2,-0.099 0.214,-0.114C0.227,-0.129 0.238,-0.15 0.247,-0.179L0.315,-0.5L0.459,-0.5L0.387,-0.16C0.386,-0.154 0.385,-0.149 0.384,-0.143C0.383,-0.139 0.383,-0.133 0.383,-0.128C0.383,-0.115 0.386,-0.105 0.393,-0.1C0.399,-0.094 0.409,-0.091 0.424,-0.091C0.441,-0.091 0.457,-0.099 0.471,-0.114C0.485,-0.129 0.496,-0.151 0.505,-0.179L0.547,-0.179C0.526,-0.118 0.498,-0.071 0.464,-0.041C0.43,-0.01 0.391,0.006 0.346,0.006C0.317,0.006 0.294,-0.002 0.277,-0.019C0.26,-0.035 0.25,-0.058 0.247,-0.089C0.228,-0.057 0.206,-0.033 0.182,-0.018C0.157,-0.002 0.13,0.006 0.099,0.006C0.066,0.006 0.04,-0.005 0.021,-0.025C0.002,-0.047 -0.008,-0.076 -0.008,-0.114C-0.008,-0.123 -0.007,-0.133 -0.006,-0.143C-0.005,-0.155 -0.003,-0.166 0,-0.179L0.068,-0.5L0.212,-0.5L0.14,-0.16C0.139,-0.155 0.138,-0.15 0.138,-0.146C0.137,-0.141 0.137,-0.137 0.137,-0.132C0.137,-0.119 0.14,-0.109 0.145,-0.102C0.15,-0.095 0.157,-0.091 0.167,-0.091Z" style="fill:white;fill-rule:nonzero;"/>
        </g>
        <g transform="matrix(900,0,0,900,1358.99,314.182)">
            <path d="M0.135,-0.169C0.135,-0.143 0.139,-0.124 0.146,-0.111C0.153,-0.098 0.166,-0.091 0.185,-0.091C0.202,-0.091 0.218,-0.099 0.234,-0.115C0.25,-0.13 0.261,-0.15 0.267,-0.174L0.267,-0.179L0.316,-0.408C0.314,-0.419 0.31,-0.427 0.303,-0.434C0.296,-0.44 0.286,-0.443 0.275,-0.443C0.238,-0.443 0.206,-0.412 0.178,-0.351C0.149,-0.29 0.135,-0.229 0.135,-0.169ZM0.325,-0.454L0.325,-0.45L0.374,-0.68L0.522,-0.7L0.407,-0.16C0.406,-0.154 0.405,-0.149 0.404,-0.143C0.403,-0.139 0.403,-0.133 0.403,-0.128C0.403,-0.115 0.406,-0.105 0.412,-0.1C0.419,-0.094 0.429,-0.091 0.444,-0.091C0.461,-0.091 0.477,-0.099 0.491,-0.114C0.505,-0.129 0.516,-0.151 0.525,-0.179L0.567,-0.179C0.546,-0.12 0.52,-0.075 0.487,-0.045C0.454,-0.015 0.413,-0 0.366,-0C0.339,-0 0.317,-0.008 0.3,-0.023C0.282,-0.038 0.272,-0.059 0.268,-0.086C0.248,-0.055 0.226,-0.032 0.201,-0.017C0.176,-0.002 0.149,0.006 0.12,0.006C0.079,0.006 0.046,-0.008 0.023,-0.036C-0.001,-0.064 -0.013,-0.104 -0.013,-0.155C-0.013,-0.192 -0.007,-0.231 0.004,-0.272C0.015,-0.313 0.031,-0.35 0.051,-0.383C0.076,-0.422 0.104,-0.453 0.137,-0.473C0.17,-0.495 0.205,-0.505 0.244,-0.505C0.27,-0.505 0.29,-0.5 0.304,-0.492C0.318,-0.483 0.325,-0.47 0.325,-0.454Z" style="fill:white;fill-rule:nonzero;"/>
        </g>
        <g transform="matrix(900,0,0,900,1831.49,314.182)">
            <path d="M0.167,-0.091C0.184,-0.091 0.2,-0.099 0.214,-0.114C0.227,-0.129 0.238,-0.15 0.247,-0.179L0.315,-0.5L0.459,-0.5L0.387,-0.16C0.386,-0.154 0.385,-0.149 0.384,-0.143C0.383,-0.139 0.383,-0.133 0.383,-0.128C0.383,-0.115 0.386,-0.105 0.393,-0.1C0.399,-0.094 0.409,-0.091 0.424,-0.091C0.441,-0.091 0.457,-0.099 0.471,-0.114C0.485,-0.129 0.496,-0.151 0.505,-0.179L0.547,-0.179C0.526,-0.118 0.498,-0.071 0.464,-0.041C0.43,-0.01 0.391,0.006 0.346,0.006C0.317,0.006 0.294,-0.002 0.277,-0.019C0.26,-0.035 0.25,-0.058 0.247,-0.089C0.228,-0.057 0.206,-0.033 0.182,-0.018C0.157,-0.002 0.13,0.006 0.099,0.006C0.066,0.006 0.04,-0.005 0.021,-0.025C0.002,-0.047 -0.008,-0.076 -0.008,-0.114C-0.008,-0.123 -0.007,-0.133 -0.006,-0.143C-0.005,-0.155 -0.003,-0.166 0,-0.179L0.068,-0.5L0.212,-0.5L0.14,-0.16C0.139,-0.155 0.138,-0.15 0.138,-0.146C0.137,-0.141 0.137,-0.137 0.137,-0.132C0.137,-0.119 0.14,-0.109 0.145,-0.102C0.15,-0.095 0.157,-0.091 0.167,-0.091Z" style="fill:white;fill-rule:nonzero;"/>
        </g>
    </g>
</svg>
