<?xml version="1.0" encoding="UTF-8" standalone="no"?>
<!DOCTYPE svg PUBLIC "-//W3C//DTD SVG 1.1//EN" "http://www.w3.org/Graphics/SVG/1.1/DTD/svg11.dtd">
<svg width="100%" height="100%" viewBox="0 0 1920 1080" version="1.1" xmlns="http://www.w3.org/2000/svg" xmlns:xlink="http://www.w3.org/1999/xlink" xml:space="preserve" xmlns:serif="http://www.serif.com/" style="fill-rule:evenodd;clip-rule:evenodd;stroke-linejoin:round;stroke-miterlimit:2;">
    <g transform="matrix(1,0,0,1,-509.352,513.59)">
        <g transform="matrix(1,0,0,1,509.352,-513.59)">
            <path d="M1913.07,271.483C1913.07,123.275 1792.74,2.949 1644.53,2.949L272.945,2.949C124.737,2.949 4.41,123.275 4.41,271.483L4.41,808.552C4.41,956.76 124.737,1077.09 272.945,1077.09L1644.53,1077.09C1792.74,1077.09 1913.07,956.76 1913.07,808.552L1913.07,271.483ZM838.05,696.259C837.975,693.636 837.938,690.971 837.938,688.272C837.938,654.972 843.338,619.872 853.238,582.972C863.138,546.072 877.538,512.772 895.538,483.072C918.038,447.972 943.238,420.072 972.938,402.072C1002.64,382.272 1034.14,373.272 1069.24,373.272C1092.64,373.272 1110.64,377.772 1123.24,384.972C1135.84,393.072 1142.14,404.772 1142.14,419.172L1142.14,422.772L1186.24,215.772L1319.44,197.772L1215.94,683.772C1215.04,689.172 1214.14,693.672 1213.24,699.072C1212.34,702.672 1212.34,708.072 1212.34,712.572C1212.34,724.272 1215.04,733.272 1220.44,737.772C1226.74,743.172 1235.74,745.872 1249.24,745.872C1264.54,745.872 1278.94,738.672 1291.54,725.172C1304.14,711.672 1314.04,691.872 1322.14,666.672L1383.34,377.772L1512.94,377.772L1448.14,683.772C1447.24,688.272 1446.34,692.772 1446.34,696.372C1445.44,700.872 1445.44,704.472 1445.44,708.972C1445.44,720.672 1448.14,729.672 1452.64,735.972C1457.14,742.272 1463.44,745.872 1472.44,745.872C1487.74,745.872 1502.14,738.672 1514.74,725.172C1526.44,711.672 1536.34,692.772 1544.44,666.672L1605.64,377.772L1735.24,377.772L1670.44,683.772C1669.54,689.172 1668.64,693.672 1667.74,699.072C1666.84,702.672 1666.84,708.072 1666.84,712.572C1666.84,724.272 1669.54,733.272 1675.84,737.772C1681.24,743.172 1690.24,745.872 1703.74,745.872C1719.04,745.872 1733.44,738.672 1746.04,725.172C1758.64,711.672 1768.54,691.872 1776.64,666.672L1814.44,666.672C1795.54,721.572 1770.34,763.872 1739.74,790.872C1709.14,818.772 1674.04,833.172 1633.54,833.172C1607.44,833.172 1586.74,825.972 1571.44,810.672C1556.14,796.272 1547.14,775.572 1544.44,747.672C1527.34,776.472 1507.54,798.072 1485.94,811.572C1463.44,825.972 1439.14,833.172 1411.24,833.172C1381.54,833.172 1358.14,823.272 1341.04,805.272C1329,791.329 1320.97,774.262 1317.28,753.438C1308.24,766.394 1298.48,777.684 1287.94,787.272C1258.24,814.272 1221.34,827.772 1179.04,827.772C1154.74,827.772 1134.94,820.572 1119.64,807.072C1103.44,793.572 1094.44,774.672 1090.84,750.372C1072.84,778.272 1053.04,798.972 1030.54,812.472C1008.04,825.972 983.738,833.172 957.638,833.172C920.738,833.172 891.038,820.572 870.338,795.372C859.935,783.236 852.038,768.594 846.645,751.546C836.236,766.963 824.916,780.129 812.74,790.872C782.14,818.772 747.04,833.172 706.54,833.172C680.44,833.172 659.74,825.972 644.44,810.672C629.14,796.272 620.14,775.572 617.44,747.672C600.34,776.472 580.54,798.072 558.94,811.572C536.44,825.972 512.14,833.172 484.24,833.172C454.54,833.172 431.14,823.272 414.04,805.272C401.837,791.143 393.76,773.805 390.134,752.608C379.572,767.368 368.024,780.122 355.54,790.872C323.14,818.772 286.24,833.172 243.94,833.172C214.24,833.172 190.84,823.272 173.74,805.272C156.64,785.472 147.64,759.372 147.64,725.172C147.64,717.072 148.54,708.072 149.44,699.072C150.34,688.272 152.14,678.372 154.84,666.672L208.84,413.772L179.14,413.772L186.34,377.772L216.04,377.772L243.04,253.572L376.24,235.572L345.64,377.772L399.64,377.772L392.44,413.772L338.44,413.772L280.84,683.772C279.94,689.172 279.04,693.672 278.14,699.072C277.24,702.672 277.24,708.072 277.24,712.572C277.24,724.272 279.94,733.272 286.24,737.772C291.64,743.172 300.64,745.872 314.14,745.872C331.24,745.872 346.54,738.672 361.84,723.372C377.14,708.972 387.94,690.072 395.14,666.672C395.14,666.672 456.34,377.772 456.34,377.772L585.94,377.772L521.14,683.772C520.24,688.272 519.34,692.772 519.34,696.372C518.44,700.872 518.44,704.472 518.44,708.972C518.44,720.672 521.14,729.672 525.64,735.972C530.14,742.272 536.44,745.872 545.44,745.872C560.74,745.872 575.14,738.672 587.74,725.172C599.44,711.672 609.34,692.772 617.44,666.672L678.64,377.772L808.24,377.772L743.44,683.772C742.54,689.172 741.64,693.672 740.74,699.072C739.84,702.672 739.84,708.072 739.84,712.572C739.84,724.272 742.54,733.272 748.84,737.772C754.24,743.172 763.24,745.872 776.74,745.872C792.04,745.872 806.44,738.672 819.04,725.172C826.192,717.509 832.474,707.817 838.05,696.259ZM971.138,675.672C971.138,699.072 974.738,716.172 981.038,727.872C987.338,739.572 999.038,745.872 1016.14,745.872C1031.44,745.872 1045.84,738.672 1060.24,724.272C1074.64,710.772 1084.54,692.772 1089.94,671.172L1089.94,666.672L1134.04,460.572C1132.24,450.672 1128.64,443.472 1122.34,437.172C1116.04,431.772 1107.04,429.072 1097.14,429.072C1063.84,429.072 1035.04,456.972 1009.84,511.872C983.738,566.772 971.138,621.672 971.138,675.672Z" style="fill:white;"/>
        </g>
    </g>
</svg>
